<?xml version="1.0" encoding="utf-8"?>
<!-- Generator: Adobe Illustrator 19.2.1, SVG Export Plug-In . SVG Version: 6.00 Build 0)  -->
<svg version="1.1" xmlns="http://www.w3.org/2000/svg" xmlns:xlink="http://www.w3.org/1999/xlink" x="0px" y="0px"
	 viewBox="0 0 9392 3984" style="enable-background:new 0 0 9392 3984;" xml:space="preserve">
<style type="text/css">
	.st0{display:none;}
	.st1{display:inline;}
	.st2{fill:#18844D;stroke:#18844D;stroke-width:12;stroke-miterlimit:10;}
	.st3{fill:#503FA5;}
	.st4{fill:none;stroke:#ADADAD;stroke-width:3;stroke-miterlimit:10;}
	.st5{fill:#18844D;}
	.st6{fill:none;stroke:#FFFFFF;stroke-width:5;stroke-miterlimit:10;}
	.st7{fill:#18844D;fill-opacity:0.9;}
	.st8{fill:#18844D;fill-opacity:0.85;}
	.st9{fill:#18844D;fill-opacity:0.75;}
	.st10{fill:#18844D;fill-opacity:0.65;}
	.st11{fill:#18844D;fill-opacity:0.5;}
	.st12{fill:#18844D;fill-opacity:0.4;}
	.st13{fill:#18844D;fill-opacity:0.25;}
</style>
<g id="boomerang-text" class="st0">
	<g class="st1">
		<path class="st2" d="M1711.8,1411.8c8.8-42.5,23.2-78,43.2-106.4c20-28.5,46.2-50.1,78.6-64.9s72.2-22.2,119.5-22.2
			c49.6-0.8,90.8,5.8,123.6,19.8s58.8,35.5,78,64.3s32.8,64.5,40.8,107s12,92.2,12,149.1c0,55.3-4.4,104.2-13.2,146.7
			c-8.8,42.5-23.2,78-43.2,106.4c-20,28.5-46.2,49.5-78.6,63.1c-32.4,13.6-72.2,20.4-119.4,20.4c-49.6,0.8-90.8-5.4-123.7-18.6
			s-58.8-34.1-78-62.5c-19.2-28.5-32.8-64.1-40.8-107c-8-42.9-12-92.4-12-148.5C1698.6,1503.2,1703,1454.3,1711.8,1411.8z
			 M1867,1650.2c1.6,28.1,5.4,52.2,11.4,72.2c6,20.1,14.9,35.7,26.9,47c12,11.2,27.9,16.8,47.8,16.8c33.5,0,56.6-17.6,69.4-53
			s19.1-93.5,19.1-174.5c0-81-6.4-139.2-19.1-174.5s-35.9-53-69.4-53c-19.9,0-35.9,5.6-47.8,16.9c-12,11.2-20.9,26.9-26.9,46.9
			c-6,20.1-9.8,44.1-11.4,72.2c-1.6,28.1-2.4,58.6-2.4,91.5S1865.4,1622.1,1867,1650.2z"/>
		<path class="st2" d="M2289,1411.8c8.8-42.5,23.2-78,43.2-106.4c20-28.5,46.2-50.1,78.6-64.9s72.2-22.2,119.5-22.2
			c49.6-0.8,90.8,5.8,123.6,19.8s58.8,35.5,78,64.3s32.8,64.5,40.8,107s12,92.2,12,149.1c0,55.3-4.4,104.2-13.2,146.7
			c-8.8,42.5-23.2,78-43.2,106.4c-20,28.5-46.2,49.5-78.6,63.1c-32.4,13.6-72.2,20.4-119.4,20.4c-49.6,0.8-90.8-5.4-123.7-18.6
			s-58.8-34.1-78-62.5c-19.2-28.5-32.8-64.1-40.8-107c-8-42.9-12-92.4-12-148.5C2275.8,1503.2,2280.2,1454.3,2289,1411.8z
			 M2444.2,1650.2c1.6,28.1,5.4,52.2,11.4,72.2c6,20.1,14.9,35.7,26.9,47c12,11.2,27.9,16.8,47.8,16.8c33.5,0,56.6-17.6,69.4-53
			s19.1-93.5,19.1-174.5c0-81-6.4-139.2-19.1-174.5s-35.9-53-69.4-53c-19.9,0-35.9,5.6-47.8,16.9c-12,11.2-20.9,26.9-26.9,46.9
			c-6,20.1-9.8,44.1-11.4,72.2c-1.6,28.1-2.4,58.6-2.4,91.5S2442.6,1622.1,2444.2,1650.2z"/>
		<path class="st2" d="M3032.8,1235.2v65.7h2.2c20.8-29.5,44.1-50.7,70.1-63.5s56.9-19.2,92.9-19.2c38.5,0,70.9,8.8,97,26.4
			c26.1,17.6,43.6,43.1,52.4,76.7h2.6c12.8-34.3,33.3-60.1,61.7-77.3c28.4-17.2,62.1-25.8,101.3-25.8c55.3,0,95.9,16.6,122,49.9
			s39,81.2,39,143.8v470.3h-166v-452.7c0-27.3-5-48.2-15-62.6c-10-14.4-26.6-21.7-49.7-21.7c-26.4,0-47.3,8.8-62.9,26.5
			s-23.4,45.8-23.4,84.3v426.2h-166v-452.7c0-27.3-5-48.2-15-62.6c-10-14.4-26.6-21.7-49.7-21.7c-26.4,0-47.3,8.8-62.9,26.5
			s-23.4,45.8-23.4,84.3v426.2h-166v-647H3032.8z"/>
		<path class="st2" d="M3927.5,1635.9c0,19.2,1.4,37.9,4.2,55.9s7.4,34.1,13.8,48.1s14.8,25.2,25.2,33.7
			c10.4,8.4,23.2,12.6,38.4,12.6c28,0,48.3-10.1,61.1-30.2s21.6-50.7,26.4-91.8h149c-3.2,75.4-23.2,132.8-60.1,172
			c-36.9,39.3-94.9,59-174.2,59c-60,0-106.9-10-140.5-30.1s-58.5-46.5-74.5-79.4s-25.8-69.8-29.4-110.6
			c-3.6-40.9-5.4-81.8-5.4-122.7c0-43.3,3-85,9-125.1c6-40.1,18-75.8,36-107s43.9-56.1,77.5-74.6s78.5-27.7,134.6-27.7
			c48.1,0,87.5,7.8,118.4,23.5c30.8,15.7,55.1,37.7,72.7,66.2s29.6,63,36,103.5s9.6,85.7,9.6,135.4v37.3h-328V1635.9z
			 M4091.7,1419.7c-2.4-18.8-6.6-34.9-12.6-48.1s-14.4-23.3-25.2-30.1s-24.6-10.2-41.3-10.2s-30.6,3.8-41.4,11.4
			s-19.4,17.6-25.8,30.1s-11,26.3-13.8,41.5c-2.8,15.2-4.2,30.5-4.2,45.7v25.3h169C4095.7,1460.4,4094.1,1438.5,4091.7,1419.7z"/>
		<path class="st2" d="M4501.2,1235.2v86.6h2.3c16.7-31.3,37.1-56.4,61.2-75.3s53.3-28.3,87.8-28.3c4.8,0,9.8,0.2,15,0.8
			c5.2,0.5,10.2,1.2,15,2.2v158c-8.8-0.7-17.4-1.2-25.8-1.5c-8.4-0.3-17-0.5-25.8-0.5c-14.4,0-28.8,2-43.3,6
			c-14.4,4-27.7,10.6-39.7,19.8c-12,9.2-21.6,21.2-28.8,36.1c-7.2,14.8-10.8,33.1-10.8,54.7v388.4h-166v-647H4501.2z"/>
		<path class="st2" d="M4740.7,1417.6c0-37.6,6-69.1,18.1-94.3s28.3-45.6,48.8-61.3c20.5-15.6,44.6-26.8,72.3-33.6
			c27.7-6.8,57.3-10.2,88.6-10.2c49.8,0,90,4.8,120.6,14.4s54.3,23.2,71.1,40.9s28.3,38.7,34.4,63.1s9,51.1,9,80V1757
			c0,30.5,1.4,54.1,4.2,71s8.2,34.9,16.2,54.1l-159,0.2c-5.6-10.4-9.8-21.4-12.7-33s-5.4-23-7.8-34.2h-2.4
			c-19.3,33.5-41.6,55.3-66.9,65.3s-58,15-98.2,15c-28.9,0-53.4-5-73.5-15c-20.1-10-36.1-23.8-48.2-41.5
			c-12-17.6-20.9-37.5-26.5-59.5c-5.6-22-8.4-43.9-8.4-65.5c0-30.5,3.2-56.7,9.6-78.8s16.3-40.9,29.5-56.5
			c13.2-15.6,30.1-28.7,50.6-39.1c20.5-10.4,45.2-19.6,74.1-27.7l93.9-25.3c24.9-6.4,42.2-15.2,51.8-26.4
			c9.6-11.2,14.5-27.7,14.5-49.3c0-24.8-5.9-44.3-17.6-58.3s-31.7-21-59.9-21c-25.8,0-45.2,7.6-58.1,22.8
			c-12.9,15.2-19.4,35.6-19.4,61.2v18h-149V1417.6z M5008.5,1579.6c-12.8,5.2-24.5,9-34.9,11.4c-33.7,7.2-57.8,19.3-72.3,36.1
			c-14.5,16.9-21.7,39.8-21.7,68.7c0,24.9,4.8,46.2,14.5,63.9c9.6,17.7,25.7,26.5,48.2,26.5c11.2,0,22.9-1.8,34.9-5.4
			c12-3.6,23.1-9.4,33.1-17.5s18.3-18.5,24.7-31.3s9.6-28.1,9.6-45.8v-127.7C5033.4,1567.4,5021.4,1574.4,5008.5,1579.6z"/>
		<path class="st2" d="M5479.8,1235.2v75.2h2.2c17.7-31.9,40.5-55.3,68.6-70.1s60.2-22.2,96.4-22.2c53,0,93.7,14.4,122.2,43.3
			s42.8,75.8,42.8,140.7v480h-166v-446.7c0-33.7-5.6-57.2-16.9-70.4s-29.3-19.9-54.2-19.9c-58.6,0-87.9,35.7-87.9,107.2v429.8h-166
			v-647H5479.8z"/>
		<path class="st2" d="M6407.3,1850c0,83.4-20.7,146-62,187.7c-41.3,41.7-110.6,62.6-207.7,62.6c-70.6,0-125-15-163.1-45
			c-38.1-30-57.2-72.7-57.2-128h159c0,20.7,8.4,37.1,25.3,49c8,5.6,16.6,10,25.8,13.2c9.2,3.2,19,4.8,29.5,4.8
			c33.7,0,57.3-10.8,71-32.4c13.6-21.6,20.5-48.4,20.5-80.4v-85.2h-2.4c-16.8,24-37.5,43.1-61.9,57.5s-49.9,21.6-76.3,21.6
			c-65.7,0-115.2-25.1-148.5-75.2c-33.3-50.1-49.9-134.2-49.9-252.1c0-37.7,2.2-76.2,6.6-115.5s13.6-74.8,27.7-106.5
			s34.5-57.5,61.3-77.6c26.9-20.1,62.8-30.1,107.7-30.1c23.2,0,47.3,6.4,72.2,19.2s45.3,36,61.4,69.5h2.2v-71.7h159V1850z
			 M6078.3,1643.3c2,20.1,6,38,12,53.7c6,15.7,14.4,28.2,25.2,37.4s25,13.9,42.6,13.9s32.2-4.6,43.9-13.9
			c11.6-9.2,20.8-21.9,27.6-38s11.6-35.6,14.4-58.5c2.8-22.9,4.2-48.1,4.2-75.4c0-78.8-6.2-134.7-18.6-167.7
			c-12.4-33-35-49.5-67.9-49.5c-18.4,0-33.2,4-44.5,12.1c-11.2,8-20,21.1-26.4,39.2s-10.6,42.2-12.6,72.4c-2,30.2-3,67-3,110.4
			C6075.3,1601.8,6076.3,1623.2,6078.3,1643.3z"/>
	</g>
</g>
<g id="the-b">
	<path id="XMLID_1_" class="st3" d="M472.8,222.9l292,181.9l0,0c0,0-2.3,1111.2,11.3,1153.5c24.6,76.3,166.4,61.2,239.5,60.2
		c106.4-1.5,225.9-33.4,266-126.4c31.7-73.5,21.2-203-47.3-271c-5-3.1-8.8-11.4-6.5-15.7c0,0,93-238.3,102.8-252.8
		c6.8-11.3,10.3-10.8,19.2-12.3c14.6-0.6,31,1.8,57.2,19.7c212.2,152.3,225,425.4,177.4,634.9c-33.3,146.8-163.4,272.9-333.1,303.4
		c-90.1,16.2-777.3,6.7-777.3,6.7"/>
</g>
<g id="boom" class="st0">
	<g class="st1">
		<path class="st4" d="M1494.9,3078.8c53,17.1,80.2,78.8,60.6,137.3"/>
		<path class="st4" d="M1558,3084.6c26.2,9.5,37.1,34,34.3,62.9"/>
		<path class="st5" d="M820.7,2900.3l644.9,201.7c48.9,15,74.6,66,57.5,114.1l-225.8,640.7c-16.4,46.1-85.8,38.4-87.2-9.7l20.3-544
			c-0.7-21.8-10.6-42-27.5-55.8L770.8,2984C729.6,2950.3,768.9,2884.4,820.7,2900.3z"/>
		<line class="st6" x1="810.3" y1="3010.4" x2="858.6" y2="2912.6"/>
	</g>
	<g class="st1">
		<path class="st4" d="M2419.4,3224.5c42,28.6,50,89.7,17.7,135.9"/>
		<path class="st4" d="M2473.2,3245.9c20.5,15.1,23.7,39.3,13.8,63.9"/>
		<path class="st5" d="M1874.8,2894.2l513,343c39,25.8,48.4,77,21,114.8l-363,503c-26.3,36.2-85,11.5-73.9-31l158.1-471.3
			c5-19.3,1.5-39.5-9.7-56l-310.6-342C1782.1,2914.5,1833.5,2866.9,1874.8,2894.2z"/>
		<line class="st6" x1="1837.3" y1="2988" x2="1904.8" y2="2914.8"/>
	</g>
	<g class="st1">
		<path class="st4" d="M3179.8,3295.6c25.7,36.8,13.1,89.7-28,117.6"/>
		<path class="st4" d="M3217.5,3330c12.2,18.9,7.3,39.9-8.6,57"/>
		<path class="st7" d="M2834,2852.6l315.7,443.5c24.1,33.5,15.8,78.7-18.6,101.2l-456.9,301.3c-33,21.6-73.7-17.1-51.3-48.7
			l278-339.3c10.2-14.3,13.6-32.1,9.5-49.2l-149.1-379.4C2751.2,2840.4,2808.5,2817.2,2834,2852.6z"/>
		<line class="st6" x1="2773.7" y1="2918.2" x2="2852.3" y2="2879"/>
	</g>
	<g class="st1">
		<path class="st4" d="M3736.8,3303.1c12.5,33.4-7.3,71.7-44.1,85.3"/>
		<path class="st4" d="M3758.9,3337c5.7,17-2.2,32.2-17.6,42.3"/>
		<path class="st8" d="M3558.4,2893.7l155.4,403.9c11.9,30.5-3.2,63.8-33.8,74.5l-407.2,143.2c-29.4,10.2-53-27.6-29.7-47.6
			l277.8-207.5c10.5-9.1,16.6-22.1,16.8-36.1l-40.6-321.9C3497.5,2868.1,3545.7,2861.4,3558.4,2893.7z"/>
		<line class="st6" x1="3499.6" y1="2932.6" x2="3567.3" y2="2917.6"/>
	</g>
	<g class="st1">
		<path class="st4" d="M4311.9,3249.4c0.5,29.1-25.2,53.2-57.1,53.6"/>
		<path class="st4" d="M4319.6,3281.5c-0.3,14.6-10.4,24.2-25.1,27.8"/>
		<path class="st9" d="M4286,2885.9l9.6,353c0.9,26.7-19.8,48.2-46.3,48.1l-352.2-0.6c-25.4-0.1-33.3-35.7-9.9-44.7l270.2-84
			c10.6-4.1,18.8-12.5,22.7-23.2l56.4-258.6C4246.1,2849.7,4285.1,2857.6,4286,2885.9z"/>
		<line class="st6" x1="4230.3" y1="2899.9" x2="4286.3" y2="2906.8"/>
	</g>
	<g class="st1">
		<path class="st4" d="M4801,3133.2c-5.7,19.6-27.9,30.3-49.4,23.9"/>
		<path class="st4" d="M4799.5,3156.3c-3.2,9.7-12,14-22.6,13.3"/>
		<path class="st10" d="M4859.8,2884.9l-67.5,237.9c-5,18.1-23.3,28.1-41,22.5l-235.3-74.1c-16.9-5.4-14.8-30.8,2.7-32l198.2,0.4
			c7.9-0.5,15.2-4.4,20.1-10.8l91.8-161.1C4840.8,2852.3,4865.1,2865.8,4859.8,2884.9z"/>
		<line class="st6" x1="4819.6" y1="2882.5" x2="4855.7" y2="2898.9"/>
	</g>
	<g class="st1">
		<path class="st4" d="M5291,3085c-8.4,12.6-26.4,15.3-40.2,6"/>
		<path class="st4" d="M5284.8,3101c-4.4,6.1-11.6,7.2-18.9,4.5"/>
		<path class="st11" d="M5387.2,2922.3l-100.1,153.5c-7.5,11.7-22.7,14.7-33.9,6.9l-150.1-104.2c-10.8-7.5-3.7-25,9-22l140.1,43.9
			c5.7,1.4,11.7,0.2,16.6-3.2l100.4-93.7C5380.9,2895,5395.2,2909.9,5387.2,2922.3z"/>
		<line class="st6" x1="5359.3" y1="2911.8" x2="5381.2" y2="2931.3"/>
	</g>
	<g class="st1">
		<path class="st4" d="M5671.9,2993.9c-6.8,5.8-17.6,4.4-23.9-3.1"/>
		<path class="st4" d="M5665.8,3002.1c-3.5,2.8-7.8,2.3-11.5-0.5"/>
		<path class="st12" d="M5753.2,2916.6l-82.1,71.4c-6.2,5.4-15.3,4.7-20.5-1.6l-68.8-83.9c-4.9-6.1,2-14.9,8.7-11.1l72.9,47.8
			c3,1.7,6.7,2,10,0.9l72.6-37.2C5754.1,2900,5759.8,2910.8,5753.2,2916.6z"/>
		<line class="st6" x1="5739" y1="2906.1" x2="5748.4" y2="2920.8"/>
	</g>
	<g class="st1">
		<path class="st4" d="M6101.3,2979.6c-5.4,2.8-12.4,0.2-15.5-5.8"/>
		<path class="st4" d="M6095.9,2984.1c-2.8,1.3-5.5,0.3-7.6-2.1"/>
		<path class="st13" d="M6167.5,2940.7l-65.7,34.9c-5,2.7-11,0.8-13.4-4.2l-32.9-66.5c-2.4-4.8,3.6-9.6,7.5-6.1l41.2,43.1
			c1.8,1.6,4.1,2.4,6.5,2.1l54.1-13.6C6170.6,2929.7,6172.7,2937.8,6167.5,2940.7z"/>
		<line class="st6" x1="6159.6" y1="2931.4" x2="6163.6" y2="2942.7"/>
	</g>
</g>
<g id="Ebene_4">
	<g>
		<path class="st4" d="M1384.8,270.6c53,17.1,80.2,78.8,60.6,137.3"/>
		<path class="st4" d="M1447.8,276.4c26.2,9.5,37.1,34,34.3,62.9"/>
		<path class="st5" d="M710.5,92.1l644.9,201.7c48.9,15,74.6,66,57.5,114.1l-225.8,640.7c-16.4,46.1-85.8,38.4-87.2-9.7l20.3-544
			c-0.7-21.8-10.6-42-27.5-55.8L660.7,175.8C619.5,142.1,658.7,76.2,710.5,92.1z"/>
		<line class="st6" x1="700.1" y1="202.2" x2="748.4" y2="104.4"/>
	</g>
</g>
</svg>
