<?xml version="1.0" encoding="utf-8"?>
<!-- Generator: Adobe Illustrator 19.2.1, SVG Export Plug-In . SVG Version: 6.00 Build 0)  -->
<svg version="1.1" id="Ebene_1" xmlns="http://www.w3.org/2000/svg" xmlns:xlink="http://www.w3.org/1999/xlink" x="0px" y="0px"
	 viewBox="0 0 1135.2 1819.3" style="enable-background:new 0 0 1135.2 1819.3;" xml:space="preserve">
<style type="text/css">
	.st0{display:none;}
	.st1{display:inline;}
	.st2{fill:#18844D;stroke:#18844D;stroke-width:12;stroke-miterlimit:10;}
	.st3{fill:#503FA5;}
	.st4{fill:none;stroke:#ADADAD;stroke-width:3;stroke-miterlimit:10;}
	.st5{fill:#18844D;}
	.st6{fill:none;stroke:#FFFFFF;stroke-width:5;stroke-miterlimit:10;}
	.st7{fill:#18844D;fill-opacity:0.9;}
	.st8{fill:#18844D;fill-opacity:0.85;}
	.st9{fill:#18844D;fill-opacity:0.75;}
	.st10{fill:#18844D;fill-opacity:0.65;}
	.st11{fill:#18844D;fill-opacity:0.5;}
	.st12{fill:#18844D;fill-opacity:0.4;}
	.st13{fill:#18844D;fill-opacity:0.25;}
</style>
<g id="boomerang-text" class="st0">
	<g class="st1">
		<path class="st2" d="M1239,1322.1c8.8-42.5,23.2-78,43.2-106.4c20-28.5,46.2-50.1,78.6-64.9c32.4-14.8,72.2-22.2,119.5-22.2
			c49.6-0.8,90.8,5.8,123.6,19.8c32.8,14,58.8,35.5,78,64.3s32.8,64.5,40.8,107s12,92.2,12,149.1c0,55.3-4.4,104.2-13.2,146.7
			s-23.2,78-43.2,106.4c-20,28.5-46.2,49.5-78.6,63.1c-32.4,13.6-72.2,20.4-119.4,20.4c-49.6,0.8-90.8-5.4-123.7-18.6
			s-58.8-34.1-78-62.5c-19.2-28.5-32.8-64.1-40.8-107s-12-92.4-12-148.5C1225.8,1413.5,1230.2,1364.6,1239,1322.1z M1394.2,1560.5
			c1.6,28.1,5.4,52.2,11.4,72.2c6,20.1,14.9,35.7,26.9,47c12,11.2,27.9,16.8,47.8,16.8c33.5,0,56.6-17.6,69.4-53
			s19.1-93.5,19.1-174.5s-6.4-139.2-19.1-174.5s-35.9-53-69.4-53c-19.9,0-35.9,5.6-47.8,16.9c-12,11.2-20.9,26.9-26.9,46.9
			c-6,20.1-9.8,44.1-11.4,72.2c-1.6,28.1-2.4,58.6-2.4,91.5S1392.6,1532.4,1394.2,1560.5z"/>
		<path class="st2" d="M1816.2,1322.1c8.8-42.5,23.2-78,43.2-106.4c20-28.5,46.2-50.1,78.6-64.9s72.2-22.2,119.5-22.2
			c49.6-0.8,90.8,5.8,123.6,19.8s58.8,35.5,78,64.3s32.8,64.5,40.8,107s12,92.2,12,149.1c0,55.3-4.4,104.2-13.2,146.7
			s-23.2,78-43.2,106.4c-20,28.5-46.2,49.5-78.6,63.1c-32.4,13.6-72.2,20.4-119.4,20.4c-49.6,0.8-90.8-5.4-123.7-18.6
			s-58.8-34.1-78-62.5c-19.2-28.5-32.8-64.1-40.8-107s-12-92.4-12-148.5C1803,1413.5,1807.4,1364.6,1816.2,1322.1z M1971.4,1560.5
			c1.6,28.1,5.4,52.2,11.4,72.2c6,20.1,14.9,35.7,26.9,47c12,11.2,27.9,16.8,47.8,16.8c33.5,0,56.6-17.6,69.4-53
			S2146,1550,2146,1469s-6.4-139.2-19.1-174.5s-35.9-53-69.4-53c-19.9,0-35.9,5.6-47.8,16.9c-12,11.2-20.9,26.9-26.9,46.9
			c-6,20.1-9.8,44.1-11.4,72.2c-1.6,28.1-2.4,58.6-2.4,91.5S1969.8,1532.4,1971.4,1560.5z"/>
		<path class="st2" d="M2560,1145.5v65.7h2.2c20.8-29.5,44.1-50.7,70.1-63.5s56.9-19.2,92.9-19.2c38.5,0,70.9,8.8,97,26.4
			s43.6,43.1,52.4,76.7h2.6c12.8-34.3,33.3-60.1,61.7-77.3c28.4-17.2,62.1-25.8,101.3-25.8c55.3,0,95.9,16.6,122,49.9
			s39,81.2,39,143.8v470.3h-166v-452.7c0-27.3-5-48.2-15-62.6s-26.6-21.7-49.7-21.7c-26.4,0-47.3,8.8-62.9,26.5
			s-23.4,45.8-23.4,84.3v426.2h-166v-452.7c0-27.3-5-48.2-15-62.6s-26.6-21.7-49.7-21.7c-26.4,0-47.3,8.8-62.9,26.5
			s-23.4,45.8-23.4,84.3v426.2h-166v-647L2560,1145.5L2560,1145.5z"/>
		<path class="st2" d="M3454.7,1546.2c0,19.2,1.4,37.9,4.2,55.9s7.4,34.1,13.8,48.1s14.8,25.2,25.2,33.7
			c10.4,8.4,23.2,12.6,38.4,12.6c28,0,48.3-10.1,61.1-30.2s21.6-50.7,26.4-91.8h149c-3.2,75.4-23.2,132.8-60.1,172
			c-36.9,39.3-94.9,59-174.2,59c-60,0-106.9-10-140.5-30.1s-58.5-46.5-74.5-79.4s-25.8-69.8-29.4-110.6
			c-3.6-40.9-5.4-81.8-5.4-122.7c0-43.3,3-85,9-125.1s18-75.8,36-107s43.9-56.1,77.5-74.6s78.5-27.7,134.6-27.7
			c48.1,0,87.5,7.8,118.4,23.5c30.8,15.7,55.1,37.7,72.7,66.2s29.6,63,36,103.5s9.6,85.7,9.6,135.4v37.3h-328v52H3454.7z
			 M3618.9,1330c-2.4-18.8-6.6-34.9-12.6-48.1s-14.4-23.3-25.2-30.1s-24.6-10.2-41.3-10.2s-30.6,3.8-41.4,11.4s-19.4,17.6-25.8,30.1
			s-11,26.3-13.8,41.5s-4.2,30.5-4.2,45.7v25.3h169C3622.9,1370.7,3621.3,1348.8,3618.9,1330z"/>
		<path class="st2" d="M4028.4,1145.5v86.6h2.3c16.7-31.3,37.1-56.4,61.2-75.3c24.1-18.9,53.3-28.3,87.8-28.3c4.8,0,9.8,0.2,15,0.8
			c5.2,0.5,10.2,1.2,15,2.2v158c-8.8-0.7-17.4-1.2-25.8-1.5s-17-0.5-25.8-0.5c-14.4,0-28.8,2-43.3,6c-14.4,4-27.7,10.6-39.7,19.8
			c-12,9.2-21.6,21.2-28.8,36.1c-7.2,14.8-10.8,33.1-10.8,54.7v388.4h-166v-647L4028.4,1145.5L4028.4,1145.5z"/>
		<path class="st2" d="M4267.9,1327.9c0-37.6,6-69.1,18.1-94.3s28.3-45.6,48.8-61.3c20.5-15.6,44.6-26.8,72.3-33.6
			c27.7-6.8,57.3-10.2,88.6-10.2c49.8,0,90,4.8,120.6,14.4s54.3,23.2,71.1,40.9s28.3,38.7,34.4,63.1s9,51.1,9,80v340.4
			c0,30.5,1.4,54.1,4.2,71s8.2,34.9,16.2,54.1l-159,0.2c-5.6-10.4-9.8-21.4-12.7-33s-5.4-23-7.8-34.2h-2.4
			c-19.3,33.5-41.6,55.3-66.9,65.3s-58,15-98.2,15c-28.9,0-53.4-5-73.5-15s-36.1-23.8-48.2-41.5c-12-17.6-20.9-37.5-26.5-59.5
			s-8.4-43.9-8.4-65.5c0-30.5,3.2-56.7,9.6-78.8s16.3-40.9,29.5-56.5s30.1-28.7,50.6-39.1s45.2-19.6,74.1-27.7l93.9-25.3
			c24.9-6.4,42.2-15.2,51.8-26.4c9.6-11.2,14.5-27.7,14.5-49.3c0-24.8-5.9-44.3-17.6-58.3s-31.7-21-59.9-21
			c-25.8,0-45.2,7.6-58.1,22.8c-12.9,15.2-19.4,35.6-19.4,61.2v18h-149v-15.9H4267.9z M4535.7,1489.9c-12.8,5.2-24.5,9-34.9,11.4
			c-33.7,7.2-57.8,19.3-72.3,36.1c-14.5,16.9-21.7,39.8-21.7,68.7c0,24.9,4.8,46.2,14.5,63.9c9.6,17.7,25.7,26.5,48.2,26.5
			c11.2,0,22.9-1.8,34.9-5.4s23.1-9.4,33.1-17.5s18.3-18.5,24.7-31.3s9.6-28.1,9.6-45.8v-127.7
			C4560.6,1477.7,4548.6,1484.7,4535.7,1489.9z"/>
		<path class="st2" d="M5007,1145.5v75.2h2.2c17.7-31.9,40.5-55.3,68.6-70.1s60.2-22.2,96.4-22.2c53,0,93.7,14.4,122.2,43.3
			s42.8,75.8,42.8,140.7v480h-166v-446.7c0-33.7-5.6-57.2-16.9-70.4s-29.3-19.9-54.2-19.9c-58.6,0-87.9,35.7-87.9,107.2v429.8h-166
			v-647H5007V1145.5z"/>
		<path class="st2" d="M5934.5,1760.3c0,83.4-20.7,146-62,187.7s-110.6,62.6-207.7,62.6c-70.6,0-125-15-163.1-45
			s-57.2-72.7-57.2-128h159c0,20.7,8.4,37.1,25.3,49c8,5.6,16.6,10,25.8,13.2c9.2,3.2,19,4.8,29.5,4.8c33.7,0,57.3-10.8,71-32.4
			c13.6-21.6,20.5-48.4,20.5-80.4v-85.2h-2.4c-16.8,24-37.5,43.1-61.9,57.5s-49.9,21.6-76.3,21.6c-65.7,0-115.2-25.1-148.5-75.2
			s-49.9-134.2-49.9-252.1c0-37.7,2.2-76.2,6.6-115.5s13.6-74.8,27.7-106.5s34.5-57.5,61.3-77.6c26.9-20.1,62.8-30.1,107.7-30.1
			c23.2,0,47.3,6.4,72.2,19.2s45.3,36,61.4,69.5h2.2v-71.7h159v614.6H5934.5z M5605.5,1553.6c2,20.1,6,38,12,53.7
			s14.4,28.2,25.2,37.4s25,13.9,42.6,13.9s32.2-4.6,43.9-13.9c11.6-9.2,20.8-21.9,27.6-38s11.6-35.6,14.4-58.5s4.2-48.1,4.2-75.4
			c0-78.8-6.2-134.7-18.6-167.7s-35-49.5-67.9-49.5c-18.4,0-33.2,4-44.5,12.1c-11.2,8-20,21.1-26.4,39.2s-10.6,42.2-12.6,72.4
			c-2,30.2-3,67-3,110.4C5602.5,1512.1,5603.5,1533.5,5605.5,1553.6z"/>
	</g>
</g>
<g id="the-b">
	<path id="XMLID_1_" class="st3" d="M0,133.2l292,181.9l0,0c0,0-2.3,1111.2,11.3,1153.5c24.6,76.3,166.4,61.2,239.5,60.2
		c106.4-1.5,225.9-33.4,266-126.4c31.7-73.5,21.2-203-47.3-271c-5-3.1-8.8-11.4-6.5-15.7c0,0,93-238.3,102.8-252.8
		c6.8-11.3,10.3-10.8,19.2-12.3c14.6-0.6,31,1.8,57.2,19.7c212.2,152.3,225,425.4,177.4,634.9c-33.3,146.8-163.4,272.9-333.1,303.4
		c-90.1,16.2-777.3,6.7-777.3,6.7"/>
</g>
<g id="boom" class="st0">
	<g class="st1">
		<path class="st4" d="M1022.1,2989.1c53,17.1,80.2,78.8,60.6,137.3"/>
		<path class="st4" d="M1085.2,2994.9c26.2,9.5,37.1,34,34.3,62.9"/>
		<path class="st5" d="M347.9,2810.6l644.9,201.7c48.9,15,74.6,66,57.5,114.1l-225.8,640.7c-16.4,46.1-85.8,38.4-87.2-9.7l20.3-544
			c-0.7-21.8-10.6-42-27.5-55.8L298,2894.3C256.8,2860.6,296.1,2794.7,347.9,2810.6z"/>
		<line class="st6" x1="337.5" y1="2920.7" x2="385.8" y2="2822.9"/>
	</g>
	<g class="st1">
		<path class="st4" d="M1946.6,3134.8c42,28.6,50,89.7,17.7,135.9"/>
		<path class="st4" d="M2000.4,3156.2c20.5,15.1,23.7,39.3,13.8,63.9"/>
		<path class="st5" d="M1402,2804.5l513,343c39,25.8,48.4,77,21,114.8l-363,503c-26.3,36.2-85,11.5-73.9-31l158.1-471.3
			c5-19.3,1.5-39.5-9.7-56l-310.6-342C1309.3,2824.8,1360.7,2777.2,1402,2804.5z"/>
		<line class="st6" x1="1364.5" y1="2898.3" x2="1432" y2="2825.1"/>
	</g>
	<g class="st1">
		<path class="st4" d="M2707,3205.9c25.7,36.8,13.1,89.7-28,117.6"/>
		<path class="st4" d="M2744.7,3240.3c12.2,18.9,7.3,39.9-8.6,57"/>
		<path class="st7" d="M2361.2,2762.9l315.7,443.5c24.1,33.5,15.8,78.7-18.6,101.2l-456.9,301.3c-33,21.6-73.7-17.1-51.3-48.7
			l278-339.3c10.2-14.3,13.6-32.1,9.5-49.2l-149.1-379.4C2278.4,2750.7,2335.7,2727.5,2361.2,2762.9z"/>
		<line class="st6" x1="2300.9" y1="2828.5" x2="2379.5" y2="2789.3"/>
	</g>
	<g class="st1">
		<path class="st4" d="M3264,3213.4c12.5,33.4-7.3,71.7-44.1,85.3"/>
		<path class="st4" d="M3286.1,3247.3c5.7,17-2.2,32.2-17.6,42.3"/>
		<path class="st8" d="M3085.6,2804l155.4,403.9c11.9,30.5-3.2,63.8-33.8,74.5L2800,3425.6c-29.4,10.2-53-27.6-29.7-47.6
			l277.8-207.5c10.5-9.1,16.6-22.1,16.8-36.1l-40.6-321.9C3024.7,2778.4,3072.9,2771.7,3085.6,2804z"/>
		<line class="st6" x1="3026.8" y1="2842.9" x2="3094.5" y2="2827.9"/>
	</g>
	<g class="st1">
		<path class="st4" d="M3839.1,3159.7c0.5,29.1-25.2,53.2-57.1,53.6"/>
		<path class="st4" d="M3846.8,3191.8c-0.3,14.6-10.4,24.2-25.1,27.8"/>
		<path class="st9" d="M3813.2,2796.2l9.6,353c0.9,26.7-19.8,48.2-46.3,48.1l-352.2-0.6c-25.4-0.1-33.3-35.7-9.9-44.7l270.2-84
			c10.6-4.1,18.8-12.5,22.7-23.2l56.4-258.6C3773.3,2760,3812.3,2767.9,3813.2,2796.2z"/>
		<line class="st6" x1="3757.5" y1="2810.2" x2="3813.5" y2="2817.1"/>
	</g>
	<g class="st1">
		<path class="st4" d="M4328.2,3043.5c-5.7,19.6-27.9,30.3-49.4,23.9"/>
		<path class="st4" d="M4326.7,3066.6c-3.2,9.7-12,14-22.6,13.3"/>
		<path class="st10" d="M4387,2795.2l-67.5,237.9c-5,18.1-23.3,28.1-41,22.5l-235.3-74.1c-16.9-5.4-14.8-30.8,2.7-32l198.2,0.4
			c7.9-0.5,15.2-4.4,20.1-10.8L4356,2778C4368,2762.6,4392.3,2776.1,4387,2795.2z"/>
		<line class="st6" x1="4346.8" y1="2792.8" x2="4382.9" y2="2809.2"/>
	</g>
	<g class="st1">
		<path class="st4" d="M4818.2,2995.3c-8.4,12.6-26.4,15.3-40.2,6"/>
		<path class="st4" d="M4812,3011.3c-4.4,6.1-11.6,7.2-18.9,4.5"/>
		<path class="st11" d="M4914.4,2832.6l-100.1,153.5c-7.5,11.7-22.7,14.7-33.9,6.9l-150.1-104.2c-10.8-7.5-3.7-25,9-22l140.1,43.9
			c5.7,1.4,11.7,0.2,16.6-3.2l100.4-93.7C4908.1,2805.3,4922.4,2820.2,4914.4,2832.6z"/>
		<line class="st6" x1="4886.5" y1="2822.1" x2="4908.4" y2="2841.6"/>
	</g>
	<g class="st1">
		<path class="st4" d="M5199.1,2904.2c-6.8,5.8-17.6,4.4-23.9-3.1"/>
		<path class="st4" d="M5193,2912.4c-3.5,2.8-7.8,2.3-11.5-0.5"/>
		<path class="st12" d="M5280.4,2826.9l-82.1,71.4c-6.2,5.4-15.3,4.7-20.5-1.6l-68.8-83.9c-4.9-6.1,2-14.9,8.7-11.1l72.9,47.8
			c3,1.7,6.7,2,10,0.9l72.6-37.2C5281.3,2810.3,5287,2821.1,5280.4,2826.9z"/>
		<line class="st6" x1="5266.2" y1="2816.4" x2="5275.6" y2="2831.1"/>
	</g>
	<g class="st1">
		<path class="st4" d="M5628.5,2889.9c-5.4,2.8-12.4,0.2-15.5-5.8"/>
		<path class="st4" d="M5623.1,2894.4c-2.8,1.3-5.5,0.3-7.6-2.1"/>
		<path class="st13" d="M5694.7,2851l-65.7,34.9c-5,2.7-11,0.8-13.4-4.2l-32.9-66.5c-2.4-4.8,3.6-9.6,7.5-6.1l41.2,43.1
			c1.8,1.6,4.1,2.4,6.5,2.1l54.1-13.6C5697.8,2840,5699.9,2848.1,5694.7,2851z"/>
		<line class="st6" x1="5686.8" y1="2841.7" x2="5690.8" y2="2853"/>
	</g>
</g>
<g id="Ebene_4">
	<g>
		<path class="st4" d="M912,180.9c53,17.1,80.2,78.8,60.6,137.3"/>
		<path class="st4" d="M975,186.7c26.2,9.5,37.1,34,34.3,62.9"/>
		<path class="st5" d="M237.7,2.4l644.9,201.7c48.9,15,74.6,66,57.5,114.1L714.3,958.9c-16.4,46.1-85.8,38.4-87.2-9.7l20.3-544
			c-0.7-21.8-10.6-42-27.5-55.8l-432-263.3C146.7,52.4,185.9-13.5,237.7,2.4z"/>
		<line class="st6" x1="227.3" y1="112.5" x2="275.6" y2="14.7"/>
	</g>
</g>
</svg>
